<?xml version="1.0" encoding="UTF-8"?>
<svg width="96px" height="96px" viewBox="0 0 96 96" version="1.1" xmlns="http://www.w3.org/2000/svg" xmlns:xlink="http://www.w3.org/1999/xlink">
    <!-- Generator: Sketch 51.2 (57519) - http://www.bohemiancoding.com/sketch -->
    <title>Group</title>
    <desc>Created with Sketch.</desc>
    <defs></defs>
    <g id="Page-1" stroke="none" stroke-width="1" fill="none" fill-rule="evenodd">
        <g id="Group" fill-rule="nonzero">
            <g id="linkedin" fill="#0399FF">
                <circle id="Oval" cx="48" cy="48" r="48"></circle>
            </g>
            <g id="iconmonstr-instagram-11" transform="translate(23.000000, 23.000000)" fill="#FFFFFF">
                <path d="M25,4.916125 C31.5415,4.916125 32.3173333,4.940625 34.9020833,5.05904167 C41.5415833,5.36120833 44.642875,8.5115 44.9450417,15.102 C45.0634583,17.6847083 45.0859167,18.4605417 45.0859167,25.0020417 C45.0859167,31.5455833 45.0614167,32.319375 44.9450417,34.9020833 C44.6408333,41.4864583 41.5477083,44.642875 34.9020833,44.9450417 C32.3173333,45.0634583 31.5455833,45.0879583 25,45.0879583 C18.4585,45.0879583 17.6826667,45.0634583 15.0999583,44.9450417 C8.444125,44.6408333 5.35916667,41.47625 5.057,34.9000417 C4.93858333,32.3173333 4.91408333,31.5435417 4.91408333,25 C4.91408333,18.4585 4.940625,17.6847083 5.057,15.0999583 C5.36120833,8.5115 8.45433333,5.35916667 15.0999583,5.057 C17.6847083,4.940625 18.4585,4.916125 25,4.916125 Z M25,0.5 C18.3462083,0.5 17.5132083,0.528583333 14.899875,0.647 C6.00229167,1.05533333 1.057375,5.99208333 0.649041667,14.8978333 C0.528583333,17.5132083 0.5,18.3462083 0.5,25 C0.5,31.6537917 0.528583333,32.4888333 0.647,35.1021667 C1.05533333,43.99975 5.99208333,48.9446667 14.8978333,49.353 C17.5132083,49.4714167 18.3462083,49.5 25,49.5 C31.6537917,49.5 32.4888333,49.4714167 35.1021667,49.353 C43.9915833,48.9446667 48.94875,44.0079167 49.3509583,35.1021667 C49.4714167,32.4888333 49.5,31.6537917 49.5,25 C49.5,18.3462083 49.4714167,17.5132083 49.353,14.899875 C48.9528333,6.01045833 44.0099583,1.057375 35.1042083,0.649041667 C32.4888333,0.528583333 31.6537917,0.5 25,0.5 Z M25,12.41925 C18.0522083,12.41925 12.41925,18.0522083 12.41925,25 C12.41925,31.9477917 18.0522083,37.5827917 25,37.5827917 C31.9477917,37.5827917 37.58075,31.9498333 37.58075,25 C37.58075,18.0522083 31.9477917,12.41925 25,12.41925 Z M25,33.1666667 C20.4899583,33.1666667 16.8333333,29.5120833 16.8333333,25 C16.8333333,20.4899583 20.4899583,16.8333333 25,16.8333333 C29.5100417,16.8333333 33.1666667,20.4899583 33.1666667,25 C33.1666667,29.5120833 29.5100417,33.1666667 25,33.1666667 Z M38.0789167,8.983125 C36.45375,8.983125 35.136875,10.3 35.136875,11.923125 C35.136875,13.54625 36.45375,14.863125 38.0789167,14.863125 C39.7020417,14.863125 41.016875,13.54625 41.016875,11.923125 C41.016875,10.3 39.7020417,8.983125 38.0789167,8.983125 Z" id="Shape"></path>
            </g>
        </g>
    </g>
</svg>